<svg width="1522" height="963" viewBox="0 0 1522 963" fill="none" xmlns="http://www.w3.org/2000/svg">
<path d="M1514.9 678.472C1511.29 668.907 1505.9 660.42 1499.28 653.353C1497.94 651.877 1496.58 650.486 1495.16 649.152C1494.84 648.84 1494.53 648.528 1494.19 648.215C1493.37 647.364 1492.54 646.484 1491.66 645.689C1490.92 644.923 1490.18 644.157 1489.42 643.419C1489.13 643.135 1488.82 642.851 1488.54 642.567C1488.34 642.368 1488.14 642.17 1487.94 641.971C1487.43 641.46 1486.95 640.921 1486.43 640.41C1486.04 640.013 1485.64 639.615 1485.24 639.246C1484.44 638.423 1483.65 637.6 1482.83 636.834C1482.09 636.067 1481.35 635.301 1480.58 634.563C1480.27 634.251 1479.96 633.967 1479.64 633.655C1479.47 633.484 1479.3 633.314 1479.13 633.144C1478.65 632.661 1478.19 632.15 1477.71 631.696C1477.26 631.27 1476.83 630.816 1476.38 630.391C1475.64 629.624 1474.9 628.858 1474.13 628.12C1473.85 627.836 1473.53 627.552 1473.25 627.268C1473.05 627.07 1472.85 626.871 1472.65 626.672C1472.06 626.076 1471.49 625.48 1470.89 624.913C1470.64 624.685 1470.41 624.43 1470.15 624.203C1469.67 623.72 1469.22 623.209 1468.71 622.727C1468.31 622.33 1467.91 621.932 1467.51 621.563C1466.77 620.797 1466.03 620.031 1465.27 619.293C1465.01 619.037 1464.76 618.782 1464.5 618.526C1464.22 618.271 1463.96 617.987 1463.7 617.731C1463.22 617.249 1462.8 616.766 1462.31 616.284C1461.91 615.886 1461.52 615.489 1461.12 615.12C1460.3 614.269 1459.47 613.445 1458.62 612.622C1458.48 612.48 1458.33 612.339 1458.19 612.197C1457.94 611.941 1457.68 611.657 1457.43 611.402C1457.17 611.146 1456.91 610.863 1456.66 610.607C1456.35 610.295 1456.03 609.954 1455.69 609.642C1455.41 609.387 1455.15 609.103 1454.87 608.819C1454.39 608.336 1453.96 607.854 1453.48 607.4C1453.08 607.002 1452.68 606.605 1452.28 606.236C1451.54 605.47 1450.81 604.675 1450.01 603.965C1449.75 603.71 1449.5 603.454 1449.24 603.199C1449.07 603.029 1448.87 602.858 1448.7 602.688C1436.17 590.426 1419.75 582.961 1402.28 582.252C1402.34 582.025 1402.42 581.826 1402.48 581.599C1403.98 576.916 1405.46 572.232 1406.94 567.606L1434.41 479.929C1442.96 452.681 1448.25 424.098 1450.61 392.564C1453.08 359.412 1446.94 322.002 1425.26 300.374C1424.98 300.09 1424.72 299.835 1424.44 299.551C1424.18 299.295 1423.93 299.04 1423.67 298.784C1423.42 298.501 1423.13 298.245 1422.85 297.961C1422.59 297.677 1422.31 297.422 1422.03 297.167C1421.77 296.911 1421.49 296.627 1421.23 296.372C1420.97 296.088 1420.69 295.832 1420.41 295.549C1420.15 295.293 1419.89 295.009 1419.61 294.754C1419.33 294.47 1419.04 294.186 1418.76 293.902C1418.5 293.647 1418.25 293.392 1417.99 293.136C1417.74 292.852 1417.45 292.597 1417.17 292.313C1416.91 292.057 1416.66 291.774 1416.37 291.518C1416.09 291.234 1415.8 290.951 1415.52 290.667C1415.26 290.411 1415.01 290.156 1414.75 289.9C1414.5 289.616 1414.21 289.361 1413.93 289.077C1413.67 288.793 1413.39 288.538 1413.1 288.254C1412.85 287.97 1412.56 287.715 1412.31 287.459C1412.05 287.204 1411.77 286.92 1411.51 286.665C1411.26 286.381 1410.97 286.125 1410.72 285.87C1410.43 285.586 1410.15 285.302 1409.87 285.018C1409.61 284.763 1409.35 284.507 1409.1 284.252C1408.84 283.968 1408.56 283.713 1408.27 283.429C1408.02 283.173 1407.76 282.89 1407.48 282.634C1407.19 282.35 1406.91 282.066 1406.63 281.783C1406.37 281.527 1406.11 281.272 1405.86 281.016C1405.6 280.732 1405.32 280.477 1405.04 280.193C1404.78 279.938 1404.52 279.654 1404.24 279.398C1403.96 279.115 1403.67 278.831 1403.39 278.547C1403.13 278.291 1402.88 278.036 1402.62 277.781C1402.36 277.497 1402.08 277.241 1401.8 276.957C1401.54 276.674 1401.26 276.418 1400.97 276.134C1400.72 275.85 1400.43 275.595 1400.18 275.34C1399.92 275.084 1399.64 274.8 1399.38 274.545C1399.13 274.261 1398.84 274.005 1398.59 273.75C1398.3 273.466 1398.02 273.182 1397.73 272.899C1397.48 272.643 1397.22 272.388 1396.97 272.132C1396.71 271.848 1396.43 271.593 1396.14 271.309C1395.89 271.054 1395.63 270.77 1395.35 270.514C1395.06 270.23 1394.78 269.947 1394.49 269.663C1394.24 269.407 1393.98 269.152 1393.73 268.896C1393.47 268.613 1393.19 268.357 1392.9 268.073C1392.65 267.818 1392.39 267.534 1392.11 267.279C1391.82 266.995 1391.54 266.711 1391.26 266.427C1391 266.172 1390.74 265.916 1390.49 265.661C1390.23 265.377 1389.95 265.121 1389.66 264.838C1389.41 264.554 1389.12 264.298 1388.84 264.043C1388.59 263.759 1388.3 263.504 1388.05 263.248C1387.79 262.993 1387.51 262.709 1387.25 262.453C1386.99 262.169 1386.71 261.914 1386.45 261.659C1386.17 261.375 1385.89 261.091 1385.6 260.807C1385.35 260.552 1385.09 260.296 1384.83 260.041C1384.58 259.757 1384.3 259.501 1384.01 259.218C1383.76 258.962 1383.5 258.678 1383.22 258.423C1382.93 258.139 1382.65 257.855 1382.36 257.571C1382.11 257.316 1381.85 257.06 1381.6 256.805C1381.34 256.521 1381.06 256.266 1380.77 255.982C1380.52 255.726 1380.26 255.443 1379.98 255.187C1379.69 254.903 1379.41 254.619 1379.12 254.336C1378.87 254.08 1378.61 253.825 1378.36 253.569C1378.16 253.371 1377.93 253.172 1377.73 252.973C1370.57 245.508 1361.68 239.803 1350.74 236.624C1344.21 234.723 1337.64 234.126 1331.22 234.609C1340.2 211.051 1342.96 184.909 1338.41 157.689C1335.26 138.814 1327.78 120.45 1316.19 103.108C1311.42 95.9832 1306.11 89.5118 1300.28 83.6931C1300.03 83.4093 1299.74 83.1538 1299.49 82.8984C1299.23 82.6429 1298.95 82.3591 1298.69 82.1036C1298.44 81.8482 1298.18 81.5927 1297.92 81.3373C1297.64 81.0534 1297.36 80.7696 1297.07 80.4858C1296.82 80.2019 1296.53 79.9465 1296.25 79.691C1295.99 79.4356 1295.71 79.1517 1295.45 78.8963C1295.2 78.6408 1294.94 78.3854 1294.69 78.1299C1294.4 77.8461 1294.09 77.5339 1293.81 77.25C1293.55 76.9946 1293.29 76.7391 1293.07 76.5121C1292.81 76.2282 1292.53 75.9728 1292.27 75.7173C1291.99 75.4335 1291.7 75.1496 1291.45 74.8942C1291.19 74.6387 1290.94 74.3833 1290.65 74.0994C1290.37 73.8156 1290.08 73.5318 1289.8 73.2763C1289.54 72.9925 1289.26 72.737 1289 72.4816C1288.75 72.2261 1288.49 71.9707 1288.24 71.7152C1287.95 71.4314 1287.67 71.1475 1287.41 70.8921C1287.16 70.6366 1286.9 70.3812 1286.65 70.1257C1286.36 69.8419 1286.08 69.5581 1285.79 69.2742C1285.54 69.0188 1285.28 68.7633 1285.03 68.5079C1284.74 68.224 1284.46 67.9402 1284.17 67.6564C1283.92 67.4009 1283.69 67.1738 1283.43 66.9184C1283.15 66.6345 1282.87 66.3507 1282.58 66.0669C1282.33 65.8114 1282.07 65.556 1281.82 65.3005C1281.53 65.0167 1281.25 64.7328 1280.96 64.449C1280.71 64.1936 1280.48 63.9665 1280.22 63.711C1279.94 63.4272 1279.66 63.1434 1279.37 62.8595C1279.12 62.6041 1278.86 62.3486 1278.6 62.0932C1278.32 61.8093 1278.07 61.5539 1277.78 61.27C1277.53 61.0146 1277.27 60.7591 1277.01 60.5037C1276.73 60.2198 1276.45 59.936 1276.13 59.6238C1275.88 59.3683 1275.65 59.1413 1275.39 58.8858C1275.11 58.602 1274.83 58.3181 1274.54 58.0343C1274.29 57.7789 1274.03 57.5234 1273.78 57.2679C1273.49 56.9841 1273.21 56.7003 1272.92 56.4164C1272.67 56.161 1272.41 55.9339 1272.18 55.6785C1271.9 55.3946 1271.62 55.1108 1271.33 54.827C1271.08 54.5715 1270.82 54.316 1270.59 54.089C1270.31 53.8051 1270.02 53.4929 1269.71 53.2091C1269.46 52.9536 1269.2 52.6982 1268.97 52.4711C1268.69 52.1873 1268.41 51.9034 1268.12 51.6196C1267.87 51.3641 1267.61 51.1087 1267.35 50.8532C1267.07 50.5694 1266.79 50.2856 1266.47 49.9734C1266.22 49.7179 1265.96 49.4624 1265.71 49.207C1265.45 48.9232 1265.17 48.6677 1264.91 48.4122C1264.66 48.1568 1264.37 47.873 1264.12 47.6175C1263.83 47.3337 1263.55 47.0498 1263.29 46.766C1263.04 46.5105 1262.75 46.2267 1262.5 45.9713C1262.24 45.7158 1261.98 45.4604 1261.7 45.1765C1261.44 44.9211 1261.16 44.6372 1260.9 44.3818C1260.62 44.0979 1260.34 43.8141 1260.05 43.5303C1259.8 43.2748 1259.54 43.0194 1259.29 42.7639C1259 42.4801 1258.75 42.2246 1258.46 41.9408C1258.21 41.6569 1257.92 41.4015 1257.67 41.146C1257.41 40.8622 1257.13 40.6068 1256.84 40.3229C1256.59 40.0391 1256.3 39.7836 1256.02 39.4998C1255.73 39.216 1255.48 38.9605 1255.19 38.6767C1254.94 38.4212 1254.68 38.1658 1254.43 37.9103C1254.14 37.6265 1253.86 37.3426 1253.6 37.0872C1253.4 36.8885 1253.21 36.7182 1253.01 36.5195C1251.84 35.3274 1250.62 34.1637 1249.4 33.0283C1249.2 32.858 1249 32.6593 1248.83 32.489C1224.85 10.1511 1193.29 -1.40105 1158.77 0.30197C1136.72 1.38055 1119.98 5.49618 1104.47 13.6423C1074.61 29.3101 1052.2 56.6151 1044.5 86.7302C1037.99 112.134 1042.34 138.019 1056.68 159.619C1059.58 163.962 1062.88 167.907 1066.63 171.569C1066.83 171.768 1067 171.966 1067.2 172.165C1067.45 172.42 1067.74 172.704 1067.99 172.96C1068.25 173.244 1068.53 173.499 1068.82 173.783C1069.07 174.038 1069.36 174.322 1069.61 174.578C1069.87 174.833 1070.15 175.117 1070.41 175.372C1070.66 175.628 1070.95 175.912 1071.2 176.167C1071.46 176.451 1071.74 176.706 1072 176.962C1072.25 177.217 1072.54 177.501 1072.79 177.757C1073.05 178.012 1073.33 178.296 1073.59 178.551C1073.84 178.835 1074.13 179.091 1074.41 179.374C1074.67 179.63 1074.95 179.914 1075.21 180.169C1075.46 180.425 1075.75 180.708 1076 180.964C1076.26 181.248 1076.54 181.503 1076.83 181.787C1077.08 182.071 1077.37 182.326 1077.65 182.61C1077.91 182.866 1078.19 183.149 1078.45 183.405C1078.7 183.66 1078.99 183.944 1079.24 184.2C1079.5 184.455 1079.78 184.739 1080.04 184.994C1080.29 185.278 1080.58 185.534 1080.86 185.817C1081.12 186.073 1081.4 186.357 1081.66 186.612C1081.91 186.868 1082.2 187.152 1082.45 187.407C1082.71 187.662 1082.99 187.946 1083.25 188.202C1083.5 188.486 1083.79 188.741 1084.04 188.996C1084.3 189.252 1084.58 189.536 1084.84 189.791C1085.1 190.047 1085.38 190.33 1085.64 190.586C1085.89 190.87 1086.18 191.125 1086.46 191.409C1086.71 191.693 1087 191.948 1087.25 192.204C1087.51 192.459 1087.79 192.743 1088.05 192.999C1088.31 193.282 1088.59 193.538 1088.87 193.822C1089.13 194.077 1089.41 194.361 1089.67 194.616C1089.95 194.9 1090.21 195.156 1090.49 195.44C1090.75 195.695 1091.01 195.979 1091.29 196.234C1091.54 196.49 1091.83 196.774 1092.08 197.029C1092.34 197.313 1092.62 197.568 1092.91 197.852C1093.16 198.108 1093.45 198.391 1093.7 198.647C1093.96 198.902 1094.24 199.186 1094.5 199.442C1094.76 199.725 1095.04 199.981 1095.32 200.265C1095.58 200.52 1095.86 200.804 1096.12 201.06C1096.37 201.315 1096.66 201.599 1096.91 201.854C1097.17 202.11 1097.45 202.394 1097.71 202.649C1097.97 202.933 1098.25 203.188 1098.53 203.472C1098.79 203.756 1099.07 204.011 1099.36 204.295C1099.61 204.551 1099.87 204.835 1100.15 205.09C1100.41 205.374 1100.69 205.629 1100.98 205.913C1101.23 206.169 1101.52 206.452 1101.77 206.708C1102.06 206.992 1102.31 207.247 1102.6 207.531C1102.85 207.786 1103.11 208.07 1103.39 208.326C1103.65 208.581 1103.93 208.865 1104.19 209.12C1104.44 209.404 1104.73 209.66 1105.01 209.944C1105.27 210.199 1105.55 210.483 1105.81 210.738C1106.06 210.994 1106.35 211.278 1106.6 211.533C1106.86 211.817 1107.14 212.072 1107.43 212.356C1107.63 212.555 1107.82 212.754 1108.02 212.952C1079.81 212.413 1051.2 205.402 1029.47 196.915L1026.51 195.752C1009.21 188.996 992.872 182.61 977.417 173.953L921.56 142.674C916.503 139.836 911.389 136.941 906.218 134.017C870.221 113.609 833.002 92.4921 793.766 81.5927C755.581 70.9772 685.718 58.9993 646.794 97.8566C639.18 105.463 633.497 115 629.804 125.474C629.634 125.304 629.435 125.133 629.264 124.935C629.008 124.651 628.724 124.395 628.44 124.111C628.185 123.828 627.9 123.572 627.645 123.317C627.389 123.033 627.077 122.777 626.821 122.494C626.565 122.238 626.309 121.983 626.054 121.727C625.798 121.443 625.514 121.188 625.23 120.904C624.974 120.62 624.69 120.365 624.406 120.081C624.15 119.826 623.894 119.57 623.639 119.315C623.383 119.031 623.099 118.775 622.815 118.491C622.559 118.208 622.275 117.952 622.019 117.697C621.764 117.413 621.479 117.157 621.195 116.874C620.94 116.618 620.684 116.363 620.428 116.107C620.173 115.823 619.888 115.568 619.604 115.284C619.349 115 619.065 114.745 618.809 114.489C618.553 114.206 618.269 113.95 617.985 113.666C617.729 113.411 617.474 113.155 617.218 112.9C616.962 112.616 616.678 112.361 616.394 112.077C616.138 111.793 615.854 111.537 615.598 111.282C615.343 110.998 615.03 110.743 614.774 110.459C614.519 110.203 614.263 109.948 614.007 109.693C613.752 109.409 613.468 109.153 613.183 108.869C612.928 108.586 612.644 108.33 612.359 108.046C612.104 107.791 611.848 107.535 611.592 107.28C611.337 106.996 611.053 106.741 610.768 106.457C610.513 106.173 610.229 105.918 609.973 105.662C609.717 105.378 609.433 105.123 609.149 104.839C608.893 104.583 608.638 104.328 608.382 104.073C608.126 103.789 607.842 103.533 607.558 103.249C607.302 102.966 607.018 102.71 606.762 102.455C606.507 102.171 606.223 101.915 605.938 101.632C605.683 101.376 605.427 101.121 605.171 100.865C602.075 97.5443 598.552 94.7344 594.602 92.4921C557.014 71.034 518.261 99.7015 489.964 120.649C480.787 127.432 472.15 133.847 464.962 137.594C435.243 153.176 415.384 156.667 397.854 159.761C384.16 162.174 371.204 164.473 357.396 172.335C336.031 184.512 329.979 206.225 329.155 225.384C329.013 225.242 328.871 225.1 328.729 224.959C328.189 224.391 327.65 223.852 327.11 223.341C326.854 223.057 326.57 222.801 326.314 222.546C326.059 222.262 325.774 222.007 325.519 221.751C325.007 221.184 324.439 220.644 323.899 220.133C323.644 219.849 323.359 219.594 323.104 219.339C322.848 219.055 322.564 218.799 322.308 218.544C321.797 217.976 321.229 217.437 320.689 216.926C320.433 216.642 320.149 216.387 319.893 216.131C319.638 215.847 319.354 215.592 319.098 215.336C318.842 215.053 318.558 214.797 318.274 214.513C318.274 214.513 318.217 214.457 318.189 214.428C317.961 214.201 317.706 213.946 317.478 213.719C317.223 213.435 316.939 213.179 316.683 212.924C316.143 212.356 315.603 211.817 315.063 211.306C314.808 211.022 314.524 210.767 314.268 210.511C314.012 210.227 313.728 209.972 313.472 209.717C313.217 209.433 312.933 209.177 312.648 208.893C312.421 208.638 312.165 208.439 311.938 208.184C308.87 204.863 305.262 202.138 301.085 200.236C251.933 178.097 204.487 222.801 186.389 243.039L186.104 243.351C156.386 280.165 140.675 335.655 142.408 396.992C93.2278 386.802 36.0358 399.319 10.1815 451.233C-1.15461 474.309 -3.11499 500.535 4.75494 523.214C8.42 533.773 14.0739 542.969 21.3472 550.661C22.7961 552.222 24.2735 553.755 25.8361 555.174C26.1203 555.429 26.3475 555.713 26.6317 555.969C26.9158 556.224 27.1715 556.536 27.4556 556.792C27.7397 557.047 27.967 557.331 28.2511 557.586C28.5352 557.842 28.7625 558.126 29.0466 558.381C29.3307 558.637 29.5864 558.921 29.8706 559.204C30.1547 559.46 30.4104 559.744 30.6945 559.999C30.9786 560.255 31.2059 560.538 31.49 560.794C31.7741 561.049 32.0014 561.333 32.2855 561.589C32.5696 561.844 32.8253 562.128 33.1094 562.412C33.3936 562.667 33.6493 562.979 33.9334 563.235C34.2175 563.49 34.4448 563.774 34.7289 564.03C35.013 564.285 35.2403 564.569 35.5244 564.824C35.8085 565.08 36.0642 565.392 36.3483 565.647C36.6324 565.903 36.8597 566.187 37.1438 566.442C37.428 566.698 37.6837 566.981 37.9394 567.237C38.2235 567.492 38.4508 567.776 38.7349 568.032C39.019 568.287 39.2747 568.599 39.5588 568.855C39.8429 569.11 40.0702 569.394 40.3543 569.65C40.6384 569.905 40.8657 570.189 41.1498 570.444C41.434 570.7 41.6897 570.984 41.9738 571.267C42.2579 571.523 42.5136 571.807 42.7977 572.062C43.0818 572.318 43.3091 572.601 43.5932 572.857C43.8773 573.112 44.1046 573.396 44.3887 573.652C44.6729 573.907 44.9286 574.191 45.1843 574.446C45.4684 574.702 45.7241 575.014 46.0082 575.269C46.2923 575.525 46.5196 575.809 46.8037 576.064C47.0878 576.32 47.3151 576.604 47.5992 576.859C47.8833 577.114 48.139 577.427 48.4231 577.682C48.7073 577.938 48.9345 578.221 49.2187 578.477C49.5028 578.732 49.7301 579.016 50.0142 579.272C50.2983 579.527 50.554 579.811 50.8097 580.066C51.0938 580.322 51.3495 580.606 51.6336 580.861C51.9177 581.117 52.145 581.4 52.4291 581.656C52.7133 581.911 52.9405 582.195 53.2247 582.451C53.5088 582.706 53.7645 582.99 54.0486 583.274C54.3327 583.529 54.5884 583.813 54.8725 584.068C55.1566 584.324 55.3839 584.608 55.668 584.863C55.9521 585.119 56.1794 585.402 56.4635 585.658C56.7477 585.913 57.0034 586.197 57.2591 586.453C57.5432 586.708 57.7989 587.02 58.083 587.276C58.3671 587.531 58.5944 587.815 58.8785 588.07C59.1626 588.326 59.3899 588.61 59.674 588.865C59.9581 589.121 60.2138 589.433 60.498 589.688C60.7821 589.944 61.0094 590.228 61.2935 590.483C61.5776 590.739 61.8049 591.022 62.089 591.278C62.3731 591.533 62.6288 591.817 62.8845 592.073C63.1686 592.328 63.4243 592.612 63.7084 592.867C63.9925 593.123 64.2198 593.407 64.504 593.662C64.7881 593.918 65.0154 594.201 65.2995 594.457C65.5836 594.712 65.8393 594.996 66.1234 595.28C66.4075 595.535 66.6632 595.848 66.9473 596.103C67.2314 596.359 67.4587 596.642 67.7428 596.898C68.027 597.153 68.2542 597.437 68.5384 597.693C68.8225 597.948 69.0498 598.232 69.3339 598.487C69.618 598.743 69.8737 599.055 70.1578 599.31C70.4419 599.566 70.6692 599.85 70.9533 600.105C71.2374 600.361 71.4647 600.644 71.7488 600.9C72.033 601.155 72.2887 601.468 72.5728 601.723C78.1982 607.031 84.7044 611.515 92.0345 615.035C94.7052 616.312 97.4043 617.391 100.103 618.356C95.6996 623.947 90.9549 629.681 85.784 635.585C74.3059 648.698 62.4583 663.032 54.9577 681.169C44.9285 705.323 45.7241 729.677 57.0886 747.956C59.8729 752.44 63.1686 756.499 66.8621 760.189C66.8621 760.189 66.8621 760.217 66.8905 760.246C67.1462 760.53 67.4303 760.757 67.686 761.04C67.9417 761.324 68.2258 761.58 68.4815 761.835C68.7372 762.119 69.0213 762.375 69.2771 762.63C69.5328 762.914 69.8169 763.169 70.101 763.453C70.3567 763.737 70.6408 763.964 70.8965 764.248C71.1522 764.532 71.4363 764.787 71.692 765.043C71.9477 765.326 72.2318 765.582 72.4875 765.837C72.7432 766.121 73.0273 766.377 73.3115 766.66C73.5672 766.944 73.8513 767.2 74.107 767.455C74.3627 767.739 74.6468 767.994 74.9025 768.25C75.1582 768.534 75.4423 768.789 75.7264 769.073C75.9821 769.328 76.2662 769.584 76.5219 769.868C76.7776 770.152 77.0618 770.407 77.3459 770.691C77.6016 770.975 77.8857 771.23 78.1414 771.486C78.3971 771.769 78.6812 772.025 78.9653 772.309C79.221 772.593 79.5051 772.848 79.7608 773.104C80.0165 773.387 80.3006 773.643 80.5563 773.898C80.812 774.182 81.0962 774.438 81.3519 774.693C81.6076 774.977 81.8917 775.232 82.1758 775.516C82.4315 775.8 82.7156 776.027 82.9713 776.311C83.227 776.595 83.5111 776.85 83.7668 777.106C84.0225 777.389 84.3066 777.645 84.5623 777.9C84.818 778.184 85.1022 778.44 85.3863 778.723C85.642 779.007 85.9261 779.263 86.1818 779.518C86.4375 779.802 86.7216 780.057 86.9773 780.313C87.4887 780.881 88.0569 781.392 88.5967 781.931C88.8524 782.215 89.1366 782.47 89.3923 782.726C89.648 783.009 89.9321 783.265 90.2162 783.549C90.4719 783.833 90.756 784.088 91.0117 784.343C91.2674 784.627 91.5515 784.883 91.8072 785.138C92.0629 785.422 92.347 785.677 92.6028 785.933C92.8585 786.217 93.1426 786.472 93.3983 786.728C93.654 787.011 93.9381 787.267 94.2222 787.551C94.4779 787.835 94.762 788.062 95.0177 788.346C95.2734 788.629 95.5575 788.885 95.8132 789.14C96.0689 789.424 96.3531 789.68 96.6372 789.963C96.8929 790.247 97.177 790.503 97.4327 790.758C97.6884 791.042 97.9725 791.297 98.2282 791.553C98.4839 791.837 98.768 792.092 99.0237 792.348C99.2794 792.631 99.5919 792.887 99.8476 793.171C100.103 793.455 100.387 793.682 100.643 793.965C100.899 794.249 101.183 794.505 101.439 794.76C101.694 795.044 101.978 795.299 102.234 795.555C102.49 795.839 102.774 796.094 103.058 796.378C103.314 796.662 103.598 796.917 103.854 797.173C104.109 797.457 104.393 797.712 104.649 797.968C104.905 798.251 105.189 798.507 105.445 798.762C105.7 799.046 105.984 799.302 106.269 799.585C106.524 799.869 106.808 800.096 107.064 800.38C107.32 800.664 107.604 800.919 107.86 801.175C108.115 801.459 108.399 801.714 108.684 801.998C108.939 802.254 109.195 802.509 109.451 802.764C109.706 803.048 110.019 803.304 110.275 803.588C110.53 803.871 110.814 804.098 111.07 804.382C111.326 804.666 111.638 804.922 111.894 805.205C112.15 805.489 112.434 805.716 112.69 806C112.945 806.284 113.229 806.539 113.485 806.795C126.725 820.902 145.732 829.104 165.961 829.104C167.04 829.104 168.148 829.104 169.257 829.019C205.793 827.401 237.756 807.987 254.775 777.02C264.037 760.189 269.151 741.91 270.855 719.544C272.702 695.417 272.248 670.525 269.321 641.602C269.548 641.829 269.747 642.056 269.975 642.255C270.23 642.51 270.458 642.766 270.713 642.993C271.026 643.333 271.367 643.646 271.708 643.958C271.878 644.128 272.049 644.327 272.248 644.497C272.588 644.866 272.958 645.207 273.327 645.576C273.554 645.803 273.753 646.002 273.981 646.229C274.293 646.541 274.606 646.881 274.947 647.194C275.117 647.364 275.316 647.563 275.486 647.761C275.827 648.102 276.168 648.443 276.509 648.783C276.765 649.039 276.992 649.294 277.248 649.521C277.532 649.805 277.816 650.117 278.129 650.401C278.356 650.628 278.555 650.827 278.754 651.054C279.066 651.366 279.379 651.707 279.72 652.019C279.975 652.274 280.203 652.53 280.458 652.757C280.743 653.041 281.027 653.325 281.339 653.608C281.538 653.807 281.737 654.034 281.964 654.233C282.305 654.573 282.618 654.914 282.959 655.226C283.214 655.482 283.442 655.709 283.697 655.936C283.981 656.22 284.266 656.532 284.578 656.816C284.777 657.014 285.004 657.241 285.203 657.44C285.544 657.781 285.857 658.093 286.198 658.434C286.453 658.689 286.68 658.916 286.936 659.143C287.22 659.427 287.504 659.739 287.817 660.023C288.073 660.279 288.357 660.562 288.612 660.818C288.84 661.045 289.039 661.272 289.266 661.471C289.578 661.811 289.919 662.123 290.232 662.436C290.431 662.634 290.658 662.861 290.857 663.089C291.226 663.458 291.567 663.826 291.937 664.167C292.107 664.337 292.278 664.508 292.448 664.678C292.789 665.019 293.101 665.359 293.442 665.671C293.641 665.87 293.84 666.097 294.067 666.296C294.437 666.665 294.778 667.034 295.147 667.374C295.318 667.545 295.488 667.715 295.658 667.885C295.999 668.226 296.312 668.567 296.653 668.879C296.852 669.077 297.051 669.305 297.278 669.503C297.59 669.844 297.931 670.156 298.244 670.468C298.5 670.724 298.784 671.008 299.039 671.263C299.295 671.518 299.522 671.774 299.778 672.001C300.062 672.285 300.346 672.569 300.63 672.852C300.858 673.08 301.057 673.307 301.284 673.505C301.596 673.818 301.909 674.158 302.25 674.47C302.506 674.726 302.733 674.981 302.989 675.208C303.273 675.492 303.557 675.776 303.841 676.06C304.068 676.287 304.267 676.514 304.494 676.741C304.807 677.053 305.119 677.394 305.46 677.706C305.716 677.961 305.972 678.217 306.227 678.472C306.512 678.756 306.796 679.04 307.08 679.324C315.603 687.839 327.394 692.863 339.781 692.522C346.714 692.324 353.447 691.217 359.896 689.372C358.732 691.841 357.595 694.339 356.544 696.865C342.139 731.578 339.582 772.224 349.47 808.356C356.373 833.561 368.988 855.331 386.035 872.219C386.12 872.304 386.205 872.418 386.291 872.503C386.546 872.787 386.83 873.042 387.115 873.326C387.37 873.61 387.654 873.865 387.91 874.121C388.166 874.376 388.45 874.66 388.706 874.916C388.961 875.171 389.245 875.455 389.501 875.71C389.757 875.966 390.041 876.25 390.297 876.505C390.581 876.789 390.836 877.044 391.12 877.328C391.376 877.584 391.66 877.839 391.916 878.123C392.172 878.407 392.456 878.662 392.712 878.918C392.967 879.173 393.251 879.457 393.507 879.713C393.791 879.996 394.047 880.252 394.331 880.536C394.587 880.791 394.842 881.046 395.126 881.33C395.382 881.614 395.666 881.87 395.95 882.153C396.206 882.437 396.49 882.693 396.746 882.948C397.002 883.232 397.286 883.487 397.541 883.743C397.797 883.998 398.081 884.282 398.337 884.538C398.593 884.822 398.877 885.077 399.133 885.361C399.388 885.645 399.672 885.9 399.956 886.184C400.212 886.439 400.496 886.723 400.752 886.979C401.008 887.234 401.292 887.518 401.547 887.773C401.803 888.029 402.087 888.313 402.343 888.568C402.627 888.852 402.883 889.107 403.167 889.391C403.423 889.647 403.707 889.902 403.962 890.186C404.218 890.47 404.502 890.725 404.758 890.981C405.014 891.236 405.298 891.52 405.553 891.776C405.838 892.059 406.093 892.315 406.377 892.599C406.633 892.854 406.889 893.109 407.173 893.393C407.429 893.677 407.713 893.933 407.997 894.216C408.253 894.5 408.537 894.756 408.792 895.011C409.048 895.295 409.332 895.551 409.588 895.806C409.844 896.061 410.128 896.345 410.383 896.601C410.639 896.885 410.923 897.14 411.179 897.424C411.435 897.708 411.719 897.963 412.003 898.247C412.259 898.503 412.543 898.786 412.798 899.042C413.082 899.326 413.338 899.581 413.622 899.865C413.878 900.12 414.162 900.404 414.418 900.66C414.702 900.943 414.958 901.199 415.242 901.483C415.497 901.738 415.782 901.994 416.037 902.277C416.293 902.561 416.577 902.817 416.833 903.072C417.088 903.328 417.373 903.612 417.628 903.867C417.912 904.151 418.197 904.435 418.481 904.719C418.736 904.974 418.992 905.229 419.248 905.485C419.503 905.769 419.788 906.024 420.072 906.308C420.327 906.592 420.611 906.847 420.867 907.103C421.123 907.358 421.407 907.642 421.663 907.897C421.918 908.153 422.202 908.437 422.458 908.692C422.714 908.976 422.998 909.232 423.254 909.515C423.509 909.799 423.794 910.055 424.078 910.338C424.333 910.594 424.617 910.878 424.873 911.133C425.157 911.417 425.413 911.672 425.697 911.956C425.953 912.212 426.237 912.496 426.493 912.751C426.777 913.035 427.061 913.319 427.317 913.574C427.572 913.83 427.828 914.085 428.084 914.341C428.339 914.624 428.623 914.88 428.879 915.164C429.135 915.419 429.419 915.703 429.675 915.958C429.959 916.242 430.243 916.526 430.527 916.81C430.783 917.065 431.038 917.321 431.294 917.576C431.55 917.86 431.834 918.116 432.118 918.399C432.374 918.683 432.658 918.939 432.914 919.194C442.914 929.384 454.506 937.871 467.433 944.314C491.015 956.064 518.148 962.791 544.968 962.791C586.42 962.791 627.105 946.755 652.846 908.465C670.915 881.586 676.37 850.704 668.188 821.554C664.182 807.277 656.596 794.505 646.453 784.429C646.197 784.145 645.913 783.889 645.629 783.605C645.373 783.35 645.118 783.095 644.834 782.811C644.549 782.527 644.265 782.243 644.01 781.988C643.754 781.732 643.498 781.477 643.243 781.221C642.987 780.937 642.703 780.682 642.419 780.398C642.163 780.114 641.879 779.859 641.623 779.603C641.367 779.32 641.083 779.064 640.799 778.78C640.544 778.496 640.259 778.241 640.004 777.986C639.748 777.73 639.464 777.446 639.208 777.191C638.952 776.907 638.668 776.651 638.384 776.368C638.129 776.084 637.844 775.828 637.589 775.573C637.333 775.289 637.049 775.034 636.765 774.75C636.509 774.494 636.253 774.239 635.969 773.955C635.685 773.671 635.429 773.416 635.145 773.132C634.89 772.848 634.606 772.593 634.35 772.337C634.094 772.053 633.81 771.798 633.554 771.542C633.299 771.287 633.015 771.003 632.759 770.748C632.475 770.464 632.219 770.208 631.935 769.924C631.679 769.669 631.395 769.385 631.139 769.13C630.884 768.846 630.6 768.59 630.344 768.335C630.088 768.051 629.804 767.796 629.548 767.54C629.293 767.256 629.008 767.001 628.724 766.717C628.469 766.433 628.185 766.178 627.929 765.922C627.673 765.667 627.389 765.383 627.133 765.128C626.878 764.844 626.594 764.588 626.309 764.305C626.054 764.021 625.77 763.765 625.514 763.51C625.258 763.226 624.974 762.971 624.69 762.687C624.434 762.431 624.179 762.176 623.894 761.892C623.61 761.608 623.355 761.353 623.07 761.069C622.815 760.785 622.531 760.53 622.275 760.274C622.019 759.99 621.735 759.735 621.479 759.479C621.224 759.224 620.94 758.94 620.684 758.685C620.4 758.401 620.144 758.145 619.86 757.861C619.604 757.606 619.32 757.322 619.065 757.067C618.809 756.811 618.525 756.527 618.269 756.272C618.013 755.988 617.729 755.733 617.445 755.449C617.189 755.165 616.905 754.91 616.65 754.654C616.394 754.37 616.11 754.115 615.854 753.859C615.598 753.604 615.314 753.32 615.059 753.065C614.803 752.781 614.519 752.525 614.235 752.242C613.979 751.958 613.695 751.702 613.439 751.447C613.183 751.163 612.899 750.907 612.615 750.624C612.359 750.368 612.104 750.113 611.82 749.829C611.536 749.545 611.251 749.261 610.996 749.006C610.74 748.75 610.484 748.495 610.229 748.239C609.945 747.956 609.689 747.7 609.405 747.416C609.149 747.161 608.893 746.905 608.609 746.622C608.325 746.338 608.069 746.082 607.785 745.798C607.53 745.543 607.245 745.259 606.99 745.004C606.734 744.748 606.45 744.464 606.194 744.209C605.939 743.925 605.654 743.67 605.37 743.386C605.115 743.102 604.83 742.847 604.575 742.591C604.319 742.307 604.035 742.052 603.779 741.796C603.524 741.541 603.239 741.257 602.984 741.002C602.728 740.718 602.444 740.462 602.16 740.178C601.904 739.895 601.62 739.639 601.364 739.384C601.109 739.1 600.824 738.844 600.54 738.561C600.285 738.305 600.029 738.05 599.745 737.766C599.574 737.596 599.404 737.425 599.233 737.283C597.188 735.183 595.057 733.196 592.784 731.323C600.37 730.358 608.126 730.017 615.854 730.414C675.66 733.508 721.374 755.619 770.753 782.044L840.048 819.142C861.356 830.552 936.277 867.763 1005.83 867.82H1006.06C1043.67 867.82 1079.9 858.169 1116.86 838.358C1165.22 812.415 1200.79 766.32 1214.48 711.88C1222.89 678.472 1225.48 643.986 1225.59 612.339C1225.65 612.395 1225.73 612.452 1225.82 612.537C1226.07 612.793 1226.33 613.077 1226.61 613.332C1226.87 613.616 1227.15 613.871 1227.44 614.155C1227.69 614.439 1227.98 614.694 1228.26 614.978C1228.52 615.234 1228.8 615.518 1229.06 615.773C1229.31 616.028 1229.57 616.312 1229.85 616.568C1230.11 616.852 1230.39 617.107 1230.68 617.391C1230.93 617.675 1231.21 617.93 1231.5 618.186C1231.75 618.441 1232.04 618.725 1232.29 618.98C1232.55 619.236 1232.81 619.52 1233.09 619.775C1233.35 620.059 1233.63 620.314 1233.91 620.598C1234.17 620.882 1234.45 621.137 1234.71 621.393C1234.97 621.648 1235.22 621.932 1235.51 622.188C1235.76 622.471 1236.04 622.727 1236.33 623.011C1236.58 623.295 1236.87 623.55 1237.12 623.806C1237.38 624.061 1237.66 624.345 1237.92 624.6C1238.18 624.856 1238.43 625.14 1238.72 625.395C1238.97 625.679 1239.26 625.934 1239.54 626.218C1239.8 626.502 1240.08 626.757 1240.36 627.041C1240.62 627.297 1240.9 627.581 1241.16 627.836C1241.41 628.091 1241.67 628.375 1241.95 628.631C1242.21 628.915 1242.49 629.17 1242.78 629.454C1243.03 629.738 1243.32 629.993 1243.6 630.277C1243.86 630.532 1244.11 630.816 1244.4 631.072C1244.65 631.327 1244.91 631.611 1245.19 631.867C1245.48 632.15 1245.73 632.406 1246.02 632.69C1246.27 632.945 1246.56 633.229 1246.81 633.484C1247.07 633.74 1247.32 634.024 1247.61 634.279C1247.86 634.563 1248.15 634.818 1248.43 635.102C1249.45 636.124 1250.53 637.117 1251.73 638.083C1252.52 638.707 1253.38 639.218 1254.2 639.757C1251.22 676.486 1258.43 714.662 1289.88 745.43C1289.97 745.515 1290.08 745.6 1290.17 745.713C1290.34 745.884 1290.51 746.082 1290.68 746.253C1290.77 746.309 1290.82 746.394 1290.91 746.451C1291.11 746.65 1291.28 746.849 1291.5 747.047C1291.59 747.132 1291.65 747.189 1291.73 747.246C1291.93 747.445 1292.1 747.643 1292.3 747.842C1292.38 747.899 1292.44 747.984 1292.53 748.041C1292.73 748.239 1292.9 748.438 1293.12 748.637C1293.21 748.722 1293.29 748.779 1293.38 748.864C1293.58 749.063 1293.75 749.233 1293.92 749.432C1294 749.488 1294.06 749.573 1294.15 749.63C1294.34 749.829 1294.52 750.028 1294.74 750.226C1294.83 750.311 1294.88 750.368 1294.97 750.425C1295.17 750.624 1295.34 750.822 1295.54 751.021C1295.62 751.078 1295.68 751.163 1295.77 751.22C1295.96 751.418 1296.13 751.617 1296.36 751.816C1296.45 751.901 1296.53 751.958 1296.62 752.043C1296.82 752.242 1296.99 752.412 1297.16 752.611C1297.24 752.667 1297.3 752.752 1297.38 752.809C1297.58 753.008 1297.75 753.207 1297.98 753.405C1298.07 753.49 1298.12 753.547 1298.21 753.604C1298.41 753.803 1298.58 754.001 1298.78 754.2C1298.86 754.285 1298.95 754.342 1299.03 754.427C1299.23 754.626 1299.4 754.824 1299.6 754.995C1299.69 755.052 1299.74 755.137 1299.83 755.193C1300.03 755.392 1300.2 755.591 1300.42 755.789C1300.51 755.875 1300.57 755.931 1300.65 755.988C1300.85 756.187 1301.02 756.386 1301.22 756.584C1301.31 756.641 1301.36 756.726 1301.45 756.783C1301.65 756.982 1301.82 757.18 1302.04 757.379C1302.13 757.464 1302.21 757.521 1302.3 757.606C1302.5 757.805 1302.67 757.975 1302.84 758.174C1302.93 758.23 1302.98 758.316 1303.07 758.372C1303.27 758.571 1303.44 758.77 1303.66 758.968C1303.75 759.054 1303.81 759.11 1303.89 759.167C1304.09 759.366 1304.26 759.565 1304.46 759.763C1304.54 759.82 1304.6 759.905 1304.69 759.962C1304.89 760.161 1305.06 760.359 1305.28 760.558C1305.37 760.643 1305.45 760.7 1305.54 760.785C1305.74 760.984 1305.91 761.154 1306.08 761.353C1306.16 761.409 1306.22 761.495 1306.31 761.551C1306.5 761.75 1306.68 761.949 1306.9 762.147C1306.99 762.233 1307.04 762.289 1307.13 762.346C1307.33 762.545 1307.5 762.743 1307.7 762.942C1307.78 763.027 1307.87 763.084 1307.95 763.169C1308.15 763.368 1308.32 763.567 1308.52 763.737C1308.61 763.822 1308.66 763.879 1308.75 763.936C1308.95 764.134 1309.12 764.333 1309.32 764.532C1309.4 764.588 1309.46 764.674 1309.54 764.73C1309.74 764.929 1309.91 765.128 1310.14 765.326C1310.23 765.383 1310.28 765.468 1310.37 765.525C1310.57 765.724 1310.74 765.922 1310.97 766.121C1311.05 766.206 1311.14 766.263 1311.22 766.348C1311.42 766.547 1311.59 766.717 1311.76 766.916C1311.85 766.973 1311.9 767.058 1311.99 767.115C1312.19 767.313 1312.36 767.512 1312.58 767.711C1312.67 767.796 1312.73 767.853 1312.81 767.909C1313.01 768.108 1313.18 768.307 1313.38 768.505C1313.47 768.562 1313.52 768.647 1313.61 768.704C1313.81 768.903 1313.98 769.101 1314.2 769.3C1314.29 769.385 1314.37 769.442 1314.46 769.527C1314.66 769.726 1314.83 769.896 1315 770.095C1315.09 770.152 1315.14 770.237 1315.23 770.294C1315.43 770.492 1315.6 770.691 1315.82 770.89C1315.91 770.975 1315.97 771.031 1316.05 771.088C1316.25 771.287 1316.42 771.486 1316.62 771.684C1316.7 771.741 1316.76 771.826 1316.85 771.883C1317.05 772.082 1317.22 772.28 1317.44 772.479C1317.53 772.564 1317.61 772.621 1317.7 772.706C1317.9 772.905 1318.07 773.075 1318.24 773.274C1318.32 773.331 1318.38 773.416 1318.47 773.472C1318.66 773.671 1318.84 773.87 1319.06 774.069C1319.15 774.154 1319.2 774.21 1319.29 774.267C1319.49 774.466 1319.66 774.665 1319.86 774.863C1319.94 774.948 1320.03 775.005 1320.11 775.09C1320.31 775.289 1320.48 775.488 1320.68 775.686C1320.77 775.772 1320.82 775.828 1320.91 775.885C1321.11 776.084 1321.28 776.283 1321.48 776.481C1321.56 776.538 1321.62 776.623 1321.7 776.68C1321.9 776.879 1322.07 777.077 1322.3 777.276C1322.39 777.333 1322.44 777.418 1322.53 777.475C1322.73 777.673 1322.9 777.872 1323.13 778.071C1323.21 778.156 1323.3 778.213 1323.38 778.298C1323.58 778.496 1323.75 778.667 1323.92 778.865C1324.01 778.922 1324.06 779.007 1324.15 779.064C1324.35 779.263 1324.52 779.461 1324.74 779.66C1324.83 779.745 1324.89 779.802 1324.97 779.859C1325.17 780.057 1325.34 780.256 1325.54 780.455C1325.63 780.512 1325.68 780.597 1325.77 780.654C1325.97 780.852 1326.14 781.051 1326.36 781.25C1326.45 781.335 1326.53 781.392 1326.62 781.477C1326.82 781.675 1326.99 781.846 1327.16 782.044C1327.25 782.101 1327.3 782.186 1327.39 782.243C1327.59 782.442 1327.76 782.64 1327.98 782.839C1328.07 782.924 1328.13 782.981 1328.21 783.038C1328.41 783.237 1328.58 783.435 1328.78 783.634C1328.86 783.691 1328.92 783.776 1329.01 783.833C1329.21 784.031 1329.38 784.23 1329.6 784.429C1329.69 784.514 1329.77 784.57 1329.86 784.656C1330.06 784.854 1330.23 785.025 1330.4 785.223C1330.48 785.28 1330.54 785.365 1330.63 785.422C1330.82 785.621 1331 785.819 1331.22 786.018C1331.31 786.103 1331.36 786.16 1331.45 786.217C1331.65 786.415 1331.82 786.614 1332.02 786.813C1332.1 786.898 1332.19 786.955 1332.27 787.04C1332.47 787.239 1332.64 787.437 1332.84 787.636C1332.93 787.721 1332.98 787.778 1333.07 787.835C1333.27 788.033 1333.44 788.232 1333.64 788.431C1333.72 788.487 1333.78 788.573 1333.86 788.629C1334.06 788.828 1334.23 789.027 1334.46 789.225C1334.55 789.282 1334.6 789.367 1334.69 789.424C1334.89 789.623 1335.06 789.821 1335.29 790.02C1335.37 790.105 1335.46 790.162 1335.54 790.247C1335.74 790.446 1335.91 790.616 1336.08 790.815C1336.17 790.872 1336.22 790.957 1336.31 791.014C1336.51 791.212 1336.68 791.411 1336.91 791.61C1336.99 791.695 1337.05 791.752 1337.13 791.808C1337.33 792.007 1337.5 792.206 1337.7 792.404C1337.79 792.461 1337.84 792.546 1337.93 792.603C1338.13 792.802 1338.3 793 1338.52 793.199C1363.78 817.893 1399.55 827.6 1436.57 819.795C1465.32 813.749 1491.78 793.227 1507.32 764.872C1522.57 737.056 1525.36 705.323 1514.93 677.791L1514.9 678.472Z" fill="url(#paint0_linear_34_24)"/>
<path d="M1458.62 633.201C1448.99 607.712 1424.98 589.887 1397.85 590.682C1369.52 591.505 1348.67 614.95 1351.74 642.681C1352.56 650.004 1357.11 657.724 1362.08 661.215C1367.19 655.879 1371.03 653.041 1376.82 653.211C1381.06 653.353 1386.63 657.582 1388.59 662.351C1392.68 672.37 1388.53 685.143 1378.42 689.656C1365.35 695.503 1350.09 691.841 1340.4 682.219C1329.18 671.093 1323.67 657.327 1323.38 641.12C1322.67 598.658 1337.9 556.877 1350.46 516.771L1377.93 429.094C1386.71 401.079 1391.57 373.008 1393.76 343.631C1396.43 307.924 1388.3 256.436 1348.56 244.912C1324.46 237.93 1300.8 251.015 1290.97 273.268C1284.63 287.573 1282.19 302.418 1280.82 318.114C1278.18 348.626 1273.35 378.372 1263.86 407.21C1261.39 414.703 1251.99 421.601 1244.4 419.529C1237.72 417.684 1231.78 408.629 1231.13 401.618L1224.99 334.718C1222.98 312.721 1204.77 297.337 1182.09 299.636C1157.46 302.134 1137.66 320.384 1128.77 343.829C1121.97 361.796 1117.43 380.927 1117.23 400.511L1116.26 503.232C1115.53 579.328 1093.22 659.058 1021.57 697.177C981.168 718.664 934.631 722.723 889.57 712.022C851.272 702.911 815.502 689.429 779.902 672.881L721.517 645.718C686.657 629.511 652.762 614.098 614.918 605.356C554.118 591.278 481.214 591.477 427.148 626.644C399.759 644.469 377.342 669.702 364.614 700.385C337.311 766.235 354.443 854.366 423.255 888.653C480.987 917.406 558.607 913.972 597.786 855.672C613.952 831.602 619.719 803.304 611.992 775.8C600.513 734.814 558.578 711.681 518.717 726.384C498.801 733.735 485.419 752.781 485.533 773.274C485.561 778.724 488.573 785.592 493.062 786.274C503.631 780.058 516.53 778.184 525.394 786.217C533.605 793.653 536.077 806.653 529.997 816.19C519.2 833.107 499.795 838.869 481.214 830.751C456.923 820.164 443.484 795.612 444.763 768.562C447.774 705.891 510.137 670.866 568.295 673.846C628.754 676.968 674.979 698.738 726.773 726.469L796.069 763.567C841.214 787.721 904.571 811.195 957.843 811.251C997.05 811.28 1031.94 800.465 1064.84 782.811C1111.8 757.606 1145.24 713.441 1158.23 661.755C1170.47 613.077 1170.47 561.929 1167.32 511.917C1166.41 497.669 1166.72 444.194 1186.44 445.216C1188.66 445.329 1193.46 448.253 1194.2 450.382C1216.3 514.33 1183.8 563.689 1208.91 583.245C1218.46 590.682 1232.27 589.49 1242.13 582.252C1251.62 575.298 1256.3 563.945 1258.52 552.336L1272.33 479.361C1274.43 468.178 1288.66 422.793 1305.97 433.692C1319.66 442.321 1305.65 494.149 1300.43 509.107L1279.71 568.713C1259.91 625.651 1247.98 692.409 1296.16 739.497C1319.46 762.261 1351.94 771.117 1386.51 763.851C1439.93 752.639 1479.62 688.577 1458.68 633.201H1458.62Z" fill="url(#paint1_radial_34_24)"/>
<path d="M676.654 205.8C708.503 204.721 727.482 179.062 761.377 184.427C800.954 190.699 793.595 261.176 792.231 288.623C790.157 331.028 784.987 371.73 774.19 412.943L744.017 528.011C739.273 546.176 736.773 564.313 739.216 582.678C742.057 603.965 753.422 623.919 772.997 633.342C793.254 643.078 823.541 652.274 842.832 637.344C854.708 628.148 859.424 612.594 860.561 597.92C862.635 570.615 859.879 544.871 855.617 517.424C845.673 453.646 839.792 390.691 845.56 326.402C847.577 303.95 849.878 283.287 855.447 261.857C863.032 232.537 892.239 215.791 921.048 227.768L978.297 251.582C1038.3 276.56 1111.49 291.745 1174.68 272.16C1245.76 250.106 1294.71 188.088 1281.87 110.998C1278.78 92.4636 1271.33 75.2348 1260.99 59.7373C1238.01 25.3647 1200.56 6.88693 1159.36 8.93056C1141.18 9.81045 1124.53 12.9327 1108.62 21.3058C1058.19 47.7594 1032.53 107.734 1063.99 155.05C1071.26 166.006 1080.63 173.13 1091.77 178.949C1108.45 187.662 1125.04 188.088 1142.51 181.56C1179.85 167.652 1176.07 126.865 1168.91 125.417C1166.04 124.849 1151.21 135.777 1139.42 125.985C1132.85 120.535 1130.58 111.14 1132.43 102.994C1134.02 95.9832 1139.73 88.9441 1147.63 85.1406C1169.25 74.7238 1194.56 83.835 1206.84 104.64C1220.48 127.773 1217.69 154.766 1204.62 178.438C1194.39 196.944 1175.98 209.177 1155.47 215.592C1115.98 227.939 1064.98 220.02 1026.62 205.005C1008.41 197.88 990.429 191.012 973.524 181.56L917.668 150.281C878.346 128.284 835.644 102.171 791.749 89.9942C749.472 78.2434 687.252 69.9838 653.101 104.073C632.389 124.764 629.094 158.739 639.606 184.739C646.084 200.747 660.545 206.396 676.711 205.856L676.654 205.8Z" fill="url(#paint2_radial_34_24)"/>
<path d="M350.72 544.53C338.106 512.655 324.724 482.228 318.53 447.997C313.303 419.074 312.223 390.662 314.354 361.285L320.718 273.722C322.195 253.569 317.223 216.841 297.705 208.042C258.554 190.387 217.67 221.042 192.867 248.772C158.546 291.234 148.119 353.451 151.557 408.033C100.076 393.302 42.3154 406.131 17.9669 455.036C-0.50046 492.616 8.1934 540.471 47.5147 559.261C68.3686 569.224 92.7455 569.224 110.872 553.442C136.442 531.19 124.225 493.78 116.611 497.697L110.076 501.046C102.888 504.736 92.092 500.252 89.8475 491.907C87.0916 481.774 92.575 471.073 101.752 465.992C119.594 456.115 153.46 457.449 153.972 476.863C155.819 547.681 138.516 588.581 92.3477 641.347C80.6423 654.744 69.7891 668.112 62.9704 684.575C55.2141 703.251 53.1685 725.447 64.4478 743.613C76.6079 763.169 98.655 773.444 120.759 772.479C153.801 771.032 183.548 753.348 199.203 724.88C208.635 707.708 212.783 690.053 214.232 670.866C217.045 633.967 213.977 598.203 208.607 561.56C205.993 543.792 199.061 497.044 216.761 488.586C228.75 482.852 238.297 487.479 244.32 497.073C267.248 533.404 242.928 570.757 256.196 611.061C261.196 626.247 275.544 636.408 291.397 635.954C315.916 635.244 340.009 622.046 350.862 599.935C359.3 582.763 357.795 562.383 350.72 544.473V544.53ZM256.423 414.646C256.139 420.493 253.866 429.378 248.582 432.812C235.484 441.384 210.851 431.563 208.38 415.583C209.033 387.483 213.977 360.15 228.353 335.882C231.45 330.659 240.087 324.188 245.769 329.268C261.367 343.233 257.503 392.99 256.423 414.646Z" fill="url(#paint3_radial_34_24)"/>
<path d="M366.8 389.413C369.897 431.137 368.988 471.811 367.482 513.734C366.885 530.31 368.334 546.46 375.068 560.993C380.182 572.062 388.989 582.451 401.093 584.835C421.89 588.951 441.238 581.117 458.484 568.997C472.405 559.204 478.57 542.146 478.173 524.207C477.746 505.048 470.729 486.457 462.49 469.058L436.237 413.682C427.43 395.119 415.526 354.161 437.601 345.021C452.688 338.777 461.353 351.465 472.519 359.043C487.122 368.949 504.993 363.499 512.664 348.257C522.239 329.212 523.148 289.021 503.118 272.388C467.035 242.386 445.727 314.594 419.56 295.435C409.616 288.169 407.57 277.185 408.679 265.576C410.582 245.906 421.208 230.607 439.192 221.695C470.047 206.396 505.959 219.821 548.093 215.11C584.658 211.022 612.757 178.835 611.706 142.589C611.194 125.502 605.399 108.472 590.568 100.014C546.701 74.9795 499.794 129.192 469.109 145.257C414.418 173.925 390.552 163.48 361.8 179.857C334.525 195.383 335.718 229.216 340.406 256.777C348.873 306.562 363.078 339.146 366.8 389.413Z" fill="url(#paint4_radial_34_24)"/>
<path d="M887.951 565.25C887.013 577.143 889.4 588.95 891.19 600.673C893.036 612.736 898.293 623.493 903.35 634.903C928.806 671.547 976.339 678.046 1015.52 657.781C1037.39 646.484 1053.45 628.432 1062.14 604.817C1070.86 581.201 1074.33 556.593 1075.1 531.218L1076.86 474.763C1077.82 443.626 1084.42 414.731 1093.42 385.837C1099.96 364.861 1108.99 324.244 1082.57 313.884C1052 301.906 1019.52 320.583 1011.54 352.174C1006.28 372.951 1006.11 393.273 1010.03 414.589L1020.49 471.385C1025.49 498.633 1021.4 526.478 1010.86 551.399C1006.09 562.695 995.147 567.833 983.527 567.265C935.824 564.909 946.677 486.258 954.291 455.973L975.032 373.717C978.725 359.099 978.583 344.312 978.725 329.467C978.981 302.957 965.286 280.931 941.25 269.89C920.482 260.353 893.576 265.547 883.263 287.658C876.274 302.616 877.978 321.037 881.7 336.761L893.576 386.887C898.349 407.011 896.9 451.289 895.224 472.889L887.979 565.25H887.951Z" fill="url(#paint5_radial_34_24)"/>
<path d="M651.853 302.502C671.201 314.878 701.26 332.703 724.16 318.738C740.411 308.832 747.116 291.007 748.679 272.529C750.128 255.527 744.36 237.589 728.279 229.784C711.204 221.467 681.741 235.801 659.78 239.547C628.243 244.94 599.121 233.871 572.358 237.759C558.493 239.775 548.151 251.298 544.231 264.752C531.588 307.98 559.175 360.519 516.558 470.42C507.268 494.404 499.511 520.46 511.842 544.189C515.422 551.115 525.138 557.416 532.781 559.885C568.267 571.381 584.518 561.418 625.515 573.907C641.312 578.732 657.592 584.04 674.326 582.28C712.369 578.278 732.115 523.696 722.171 486.315C719.301 475.501 712.255 467.014 703.846 463.211C677.338 451.261 659.268 474.309 641.113 488.955C630.232 497.725 614.662 504.622 600.741 497.81C572.869 484.215 586.081 435.111 598.638 420.067C605.4 411.95 619.748 409.793 628.953 414.05C646.994 422.367 659.268 433.152 675.605 425.489C694.924 416.434 697.481 388.874 692.936 371.531C690.805 363.442 683.872 356.091 677.878 353.423C657.592 344.425 647.705 361.796 626.822 366.451C617.901 368.438 605.684 365.486 601.565 356.715C593.61 339.855 596.678 317.319 609.861 304.035C621.083 292.682 639.437 294.64 651.853 302.559V302.502Z" fill="url(#paint6_radial_34_24)"/>
<path d="M324.075 808.378C297.426 783.628 266.798 815.815 270.889 832.731C258.076 818.88 215.573 824.841 219.294 860.292C223.414 899.745 298.732 899.717 305.494 902.47C307.881 896.424 352.742 835.002 324.104 808.378H324.075Z" fill="#6C201E"/>
<path d="M1330.88 839.72C1341.05 800.153 1292.81 787.182 1278.26 800.295C1285.08 780.228 1256.39 741.484 1223.34 764.163C1186.55 789.396 1226.98 863.704 1227.89 871.85C1235.14 870.97 1319.94 882.296 1330.88 839.72Z" fill="#6C201E"/>
<path d="M1024.57 20.483C1000.47 -20.2759 950.3 8.6186 949.135 31.2688C938.282 9.24304 882.994 1.01179 874.527 46.6243C865.095 97.4026 959.136 125.162 966.552 131.094C971.779 124.452 1050.51 64.3357 1024.57 20.483Z" fill="#6C201E"/>
<defs>
<linearGradient id="paint0_linear_34_24" x1="1521.15" y1="286.163" x2="8.37191e-06" y2="676.766" gradientUnits="userSpaceOnUse">
<stop stop-color="#501A15"/>
<stop offset="1" stop-color="#240C05"/>
</linearGradient>
<radialGradient id="paint1_radial_34_24" cx="0" cy="0" r="1" gradientTransform="matrix(43.1456 825.07 -1383.51 67.6906 908.303 574.645)" gradientUnits="userSpaceOnUse">
<stop stop-color="#FBEEE5"/>
<stop offset="1" stop-color="#E0BDA2"/>
</radialGradient>
<radialGradient id="paint2_radial_34_24" cx="0" cy="0" r="1" gradientTransform="matrix(25.222 791.725 -808.77 64.9549 958.855 326.992)" gradientUnits="userSpaceOnUse">
<stop stop-color="#FBEEE5"/>
<stop offset="1" stop-color="#E0BDA2"/>
</radialGradient>
<radialGradient id="paint3_radial_34_24" cx="0" cy="0" r="1" gradientTransform="matrix(13.4986 708.722 -432.845 58.1452 182.653 487.687)" gradientUnits="userSpaceOnUse">
<stop stop-color="#FBEEE5"/>
<stop offset="1" stop-color="#E0BDA2"/>
</radialGradient>
<radialGradient id="paint4_radial_34_24" cx="0" cy="0" r="1" gradientTransform="matrix(10.6275 612.586 -340.781 50.258 474.766 339.726)" gradientUnits="userSpaceOnUse">
<stop stop-color="#FBEEE5"/>
<stop offset="1" stop-color="#E0BDA2"/>
</radialGradient>
<radialGradient id="paint5_radial_34_24" cx="0" cy="0" r="1" gradientTransform="matrix(8.60862 502.308 -276.044 41.2105 989.414 467.221)" gradientUnits="userSpaceOnUse">
<stop stop-color="#FBEEE5"/>
<stop offset="1" stop-color="#E0BDA2"/>
</radialGradient>
<radialGradient id="paint6_radial_34_24" cx="0" cy="0" r="1" gradientTransform="matrix(9.44389 442.115 -302.828 36.2722 627.179 404.927)" gradientUnits="userSpaceOnUse">
<stop stop-color="#FBEEE5"/>
<stop offset="1" stop-color="#E0BDA2"/>
</radialGradient>
</defs>
</svg>
